<?xml version="1.0" encoding="UTF-8"?>
<!DOCTYPE svg PUBLIC "-//W3C//DTD SVG 1.1//EN" "http://www.w3.org/Graphics/SVG/1.1/DTD/svg11.dtd">
<!-- Creator: CorelDRAW 2020 (64-Bit) -->
<svg xmlns="http://www.w3.org/2000/svg" xml:space="preserve" width="5.813in" height="1.419in" version="1.1" style="shape-rendering:geometricPrecision; text-rendering:geometricPrecision; image-rendering:optimizeQuality; fill-rule:evenodd; clip-rule:evenodd"
viewBox="0 0 5813 1419"
 xmlns:xlink="http://www.w3.org/1999/xlink"
 xmlns:xodm="http://www.corel.com/coreldraw/odm/2003">
 <defs>
  <style type="text/css">
   <![CDATA[
    .fil3 {fill:#2EA848;fill-rule:nonzero}
    .fil2 {fill:#4A5594;fill-rule:nonzero}
    .fil1 {fill:#AB282C;fill-rule:nonzero}
    .fil4 {fill:#EC9141;fill-rule:nonzero}
    .fil0 {fill:white;fill-rule:nonzero}
   ]]>
  </style>
 </defs>
 <g id="Layer_x0020_1">
  <metadata id="CorelCorpID_0Corel-Layer"/>
  <polygon class="fil0" points="3.17,1416.96 1419.83,1416.96 1419.83,0.28 3.17,0.28 "/>
  <polygon class="fil0" points="1462.21,1419.5 2878.02,1419.5 2878.02,3.7 1462.21,3.7 "/>
  <polygon class="fil0" points="2929.83,1416.96 4349.83,1416.96 4349.83,0.28 2929.83,0.28 "/>
  <polygon class="fil0" points="4403.17,1416.96 5813.17,1416.96 5813.17,0.28 4403.17,0.28 "/>
  <path class="fil1" d="M4349.84 0.29l0 1416.67 -226.67 0 23.33 -73.33 -113.33 -50 13.32 -86.68 120.01 -9.99 0 -150c0,0 -89,-8.36 -120.01,-10 -5.78,-25.33 -9.33,-52.89 -13.32,-80.01 38.65,-16.87 79.11,-32 116.67,-49.99 -16.43,-46.9 -31.65,-95.03 -46.68,-143.35 -39.2,9.7 -116.65,30.02 -116.65,30.02l-40 -66.65 96.67 -86.68 -86.67 -123.33 -116.67 66.67 -50 -53.33 66.65 -113.33 -123.32 -90 -90 100 -66.68 -36.67 30 -123.33 -140 -50 -56.67 123.33 -79.98 -13.33 -6.68 -129.98 -149.99 0 -13.35 133.32 -69.98 13.33c0,0 -47.26,-103.42 -56.67,-123.33 -29,8.82 -81.08,21.85 -103.33,26.67l0 -246.67 1420 0z"/>
  <path class="fil2" d="M4403.17 0.29l1410.01 0 0 1416.67 -1413.35 0 0 -893.42 16.67 0.09c0,0 69.44,-64.82 105.33,-102.99 72.92,-77.54 78.69,-67.13 217.98,-67.01 -1.82,22.82 -10.65,194.68 -23.32,293.33 -12.68,98.65 -27.36,191.38 -73.33,283.32 -31.36,62.72 -53.79,79.6 -103.33,146.68 -49.56,67.08 -37.92,106.79 -36.67,116.67 0.69,5.51 6.78,48.4 50,69.98 109.86,54.92 169.78,-66.21 170,-69.98 0.07,-1.2 66.59,-144.2 93.33,-446.67 9.56,-108.22 21.81,-279.32 23.33,-393.33 77.4,0 286.19,0.59 317.52,0.59 -6.92,48.82 -12.57,102.18 -17.52,152.74 -6.29,64.14 -12.02,129.56 -16.67,199.99 -6.76,102.72 -11.82,250.83 3.33,340.01 15.15,89.18 72.59,219.78 169.99,226.67 97.44,6.89 141.46,-27.81 150.01,-33.33 25.18,-16.28 45.03,-38.89 63.35,-63.33 4.17,-5.58 49.33,-60.82 63.3,-140 8.47,-47.75 10.75,-64.62 13.35,-96.67l-46.67 0c0,0 -22.39,129.78 -176.67,133.33 -63.18,1.44 -86.64,-41.93 -106.67,-116.68 -20.01,-74.74 -11.01,-178.79 -3.33,-273.32 7.68,-94.54 27.72,-286.09 36.67,-330l296.67 0 0 -163.33 -778.78 0c-43.18,0 -64.26,3.25 -128.47,3.33 -108.81,0.17 -153.96,44.15 -206.08,113.33 -44.42,58.99 -62,105.64 -73.33,143.33l0 -440c-0.29,-4.74 -0.56,-9.44 3.33,-10z"/>
  <path class="fil3" d="M881.74 401.63c-52.78,0 -95.56,-42.78 -95.56,-95.54 0,-52.76 42.78,-95.56 95.56,-95.56 52.75,0 95.53,42.79 95.53,95.56 0,52.76 -42.78,95.54 -95.53,95.54zm-881.91 -391.33l0 -6.01c0.31,-2.13 1.2,-3.69 3.33,-3.99l1416.67 0 0 1416.67c-33.11,0 -104.51,-0.42 -159.5,-0.42 -2.98,-4.8 -316.37,-555.7 -323.83,-566.25 -1.38,-36.33 -2.54,-241.46 0,-250 -1.29,-13.52 20.76,-3.67 30,-6.67 14.5,-3.74 16.37,-3.97 16.67,-16.67 0.48,-21.11 -19.33,-15.83 -46.67,-16.65 -103.36,-3.18 -351.61,-0.65 -370,0 -16.5,0.57 -41.63,-6.68 -46.67,13.32 -0.64,12.86 5.29,19.15 16.67,20 10.14,2.08 28.71,-4.26 33.33,3.32 0,67.25 5.1,243.54 -3.33,260.01 -1.14,2.24 -257.74,463.97 -310,560l-256.67 0 0 -1406.67zm826.03 90.25c22.03,0 39.89,17.88 39.89,39.91 0,22.04 -17.86,39.93 -39.89,39.93 -22.06,0 -39.91,-17.89 -39.91,-39.93 0,-22.03 17.86,-39.91 39.91,-39.91zm-124.93 406.25c-35.08,0 -63.51,-28.43 -63.51,-63.5 0,-35.08 28.43,-63.53 63.51,-63.53 35.07,0 63.52,28.44 63.52,63.53 0,35.07 -28.44,63.5 -63.52,63.5zm-221.58 -332.79c0,-72.32 58.63,-130.94 130.94,-130.94 72.32,0 130.94,58.63 130.94,130.94 0,72.32 -58.63,130.94 -130.94,130.94 -72.32,0 -130.94,-58.63 -130.94,-130.94z"/>
  <path class="fil3" d="M579.83 1003.64c-4.19,1.35 -228.25,400.14 -233.33,413.32l813.33 0c2.91,-7.54 -221.62,-398.78 -230,-413.32l-350 0z"/>
  <path class="fil0" d="M881.71 357.75c-28.56,0 -51.71,-23.15 -51.71,-51.72 0,-28.56 23.15,-51.71 51.71,-51.71 28.56,0 51.71,23.15 51.71,51.71 0,28.57 -23.15,51.72 -51.71,51.72z"/>
  <path class="fil3" d="M881.71 254.32c-28.56,0 -51.71,23.15 -51.71,51.71 0,28.57 23.15,51.72 51.71,51.72 28.56,0 51.71,-23.15 51.71,-51.72 0,-28.56 -23.15,-51.71 -51.71,-51.71z"/>
  <path class="fil0" d="M700.92 477.64c-18.98,0 -34.37,-15.41 -34.37,-34.41 0,-18.97 15.39,-34.36 34.37,-34.36 18.99,0 34.37,15.39 34.37,34.36 0,19 -15.39,34.41 -34.37,34.41z"/>
  <path class="fil3" d="M700.92 408.87c-18.98,0 -34.37,15.39 -34.37,34.36 0,19 15.39,34.4 34.37,34.4 18.99,0 34.37,-15.4 34.37,-34.4 0,-18.97 -15.39,-34.36 -34.37,-34.36z"/>
  <path class="fil4" d="M1879.09 804.39c-112.92,75.71 -192.74,136.79 -224.03,169.94 -57.36,60.7 -86.11,92.75 -75.26,110.03 12.43,19.8 88.6,-0.76 132.44,-14.63 0,-0.24 -0.04,-0.52 -0.04,-0.78 0,-60.68 49.2,-109.86 109.88,-109.86 60.68,0 109.87,49.18 109.87,109.86 0,60.68 -49.19,109.86 -109.87,109.86 -26.96,0 -51.63,-9.74 -70.74,-25.85 -43.21,17.57 -109.85,35.5 -157.99,29.58 -25.51,-2.52 -74.96,-9.17 -96.78,-41.11 -28.67,-56.75 -0.99,-94.94 0.03,-101.65 18.9,-52.24 100.24,-147.07 301.93,-292.53 -57.39,-42.81 -109.82,-86.33 -155.18,-127.54 -73.64,-66.9 -117.42,-127.39 -141.21,-173.61 -23.78,-46.22 -34.37,-67.94 4.41,-112.98 38.78,-38.78 83.82,-26.26 104.4,-25.91 21.13,-0.12 126.26,25.71 280.94,97.24 70.03,32.36 147.93,76.93 237.57,127.2 49.86,-29.43 100.92,-56.39 151.8,-80.54 -11.5,-135.64 -26.46,-239.08 -37.21,-282.75 -19.97,-81.1 -31.33,-122.63 -51.74,-122.88 -25.2,-0.29 -51.09,87.06 -62.06,129 33.56,18.82 56.28,54.68 56.28,95.89 0,60.67 -49.19,109.86 -109.87,109.86 -60.68,0 -109.87,-49.2 -109.87,-109.86 0,-47.56 30.26,-87.94 72.54,-103.25 6.46,-45.31 28.56,-121.96 63.11,-163.43l-640.22 0 0 1415.79 614.11 0c-14.79,-33.47 -52.51,-214.4 -55.67,-528.18 -48.87,-27.02 -96.32,-56.38 -141.57,-86.92z"/>
  <path class="fil4" d="M2577.43 633.94c119.71,-99.63 212.02,-195.79 195.93,-218.91 -25.96,-37.33 -218.11,20.06 -392.76,97.6 5.01,80.13 7.87,169.76 8.08,268.81 58.69,-43.76 127,-96.08 188.75,-147.5z"/>
  <path class="fil4" d="M2111.52 542.11c-70.47,-30.43 -156.82,-66.47 -238.39,-96.37 -146.22,-53.64 -275.69,-85.33 -287.65,-59.81 -19.94,42.58 136.93,188.26 297.32,302.43 65.63,-44.54 141.18,-93.09 228.29,-145.98 0.14,-0.1 0.3,-0.17 0.43,-0.26z"/>
  <path class="fil4" d="M2166.38 1419.49l18 0c42.57,-26.75 84.91,-211.7 103.81,-390.41 -70.85,-33.71 -150.6,-74.3 -239.79,-122.64 28.19,193.31 77.11,478.67 117.98,513.04z"/>
  <path class="fil4" d="M2241.57 593.61c7.41,3.98 14.54,9.68 15.21,12.22 -5.67,-2.29 -17.22,-7.39 -33.3,-14.53 -0.81,0.46 -1.64,0.93 -2.43,1.39 -92.28,53.19 -177.48,105.17 -252.65,153.25 16.24,10.25 32.21,19.97 47.64,28.88 1.69,0.96 3.35,1.9 5.03,2.87 0.15,-8.74 0.28,-17.42 0.47,-26.31 0.19,-8.41 2,-17.36 3.96,-19.12 0.69,7.9 2.79,26.04 6.03,51.43 94.81,54.31 184.5,102.69 264.82,143.74 1.26,-23.97 1.99,-47.17 2.07,-69.17 -11.13,6.74 -22.19,13.4 -33.6,20.4 -7.18,4.4 -15.68,7.72 -18.21,7.01 7.08,-5.5 25.71,-18.93 51.83,-37.91 -0.14,-102.52 -3.85,-201.67 -9.47,-291.67 -20.48,10.41 -40.14,20.89 -58.65,31.36 3.81,2.06 7.42,4.07 11.26,6.15z"/>
  <path class="fil4" d="M2878.02 3.7c0,0 -558.21,0.25 -611.42,0.25 41.96,39.21 83.85,173.5 106,406.57 59.18,-24.72 116.63,-45.76 169.44,-62.58 94.82,-30.2 188.28,-36.97 221,-35.17 32.72,1.79 76.03,4.29 95.57,60.42 14.12,53 -19.28,85.71 -29.92,103.32 -10.49,18.36 -85.53,96.39 -224.94,194.39 -59.74,42 -132.52,84.67 -215.07,133.48 -0.18,55.78 -1.57,111.89 -4.67,166.77 115.5,56.04 203.22,92.07 245.96,102.15 81.28,19.18 123.42,28 132.94,9.96 10.97,-20.81 -45.68,-76.88 -79.58,-107.75 -15.47,8.33 -33.15,13.07 -51.96,13.07 -60.67,0 -109.88,-49.2 -109.88,-109.89 0,-60.68 49.21,-109.86 109.88,-109.86 60.68,0 109.87,49.18 109.87,109.86 0,8.13 -0.93,16.02 -2.6,23.61 36.56,28.81 83.82,76.33 102.43,120.03 10.59,23.33 29.64,69.42 12.91,104.33 -34.72,53.25 -81.67,48.44 -87.96,50.94 -53.49,9.6 -172.14,-12.02 -389.69,-108.07 -7.24,70.88 -18.13,137.61 -33.92,196.02 -22.44,82.93 -43.2,139.89 -48.46,153.94l584.04 0 0 -1415.79z"/>
  <path class="fil1" d="M3179.26 844.13c187.33,0 339.18,151.86 339.18,339.2 0,90.39 -35.44,172.42 -93.07,233.21l259.25 0c32.78,-70.94 51.32,-149.85 51.32,-233.14 0,-307.48 -249.24,-556.72 -556.72,-556.72 -89.48,0 -173.9,21.42 -248.83,58.94l0 267.36c61.96,-66.89 150.48,-108.85 248.87,-108.85z"/>
  <path class="fil1" d="M2930.39 1413.67l0 2.87 2.76 0c-0.92,-0.96 -1.87,-1.92 -2.76,-2.87z"/>
 </g>
</svg>
