<?xml version="1.0" encoding="UTF-8"?>
<!DOCTYPE svg PUBLIC "-//W3C//DTD SVG 1.1//EN" "http://www.w3.org/Graphics/SVG/1.1/DTD/svg11.dtd">
<!-- Creator: CorelDRAW 2020 (64-Bit) -->
<svg xmlns="http://www.w3.org/2000/svg" xml:space="preserve" width="5.20833in" height="5.20833in" version="1.1" style="shape-rendering:geometricPrecision; text-rendering:geometricPrecision; image-rendering:optimizeQuality; fill-rule:evenodd; clip-rule:evenodd"
viewBox="0 0 5208.33 5208.33"
 xmlns:xlink="http://www.w3.org/1999/xlink"
 xmlns:xodm="http://www.corel.com/coreldraw/odm/2003">
 <defs>
  <style type="text/css">
   <![CDATA[
    .str0 {stroke:#0D73B1;stroke-width:3;stroke-miterlimit:2.61313}
    .fil0 {fill:#C4E6FA}
    .fil1 {fill:#0D73B1}
   ]]>
  </style>
 </defs>
 <g id="Layer_x0020_1">
  <metadata id="CorelCorpID_0Corel-Layer"/>
  <polygon class="fil0" points="1106,2234.02 1106,1150.69 3939.34,1469.5 3939.34,2552.83 "/>
  <polygon class="fil0" points="1106,3640.28 1106,2556.94 3939.34,2875.75 3939.34,3959.08 "/>
  <path class="fil1 str0" d="M1106 1150.69l1044.4 -400.84c49.95,130.06 176.01,222.38 323.65,222.38 191.42,0 346.6,-155.18 346.6,-346.6 0,-43.78 -8.14,-85.65 -22.95,-124.22l1044.4 -400.84c53.48,-20.53 97.25,12.89 97.25,74.25l0 860.19c0,61.37 -43.76,128.37 -97.25,148.89l-2736.09 1050.12 0 -1083.33z"/>
  <rect class="fil1 str0" transform="matrix(1 -0.383804 -0 1 1106 2556.94)" width="2833.33" height="1083.33"/>
  <circle class="fil1" cx="2474.05" cy="625.63" r="293.84"/>
  <path class="fil1 str0" d="M1203.25 3925.87l2736.09 -1050.12 0 1083.33 -2736.09 1050.12c-53.49,20.53 -97.25,-12.88 -97.25,-74.25l0 -860.19c0,-61.37 43.76,-128.37 97.25,-148.9z"/>
 </g>
</svg>
